<svg id="visual" viewBox="0 0 1920 1080" width="1920" height="1080" xmlns="http://www.w3.org/2000/svg" xmlns:xlink="http://www.w3.org/1999/xlink" version="1.1"><path d="M0 476L29.2 447.2C58.3 418.3 116.7 360.7 174.8 344.5C233 328.3 291 353.7 349.2 380.7C407.3 407.7 465.7 436.3 523.8 407.5C582 378.7 640 292.3 698.2 256.3C756.3 220.3 814.7 234.7 872.8 241.8C931 249 989 249 1047.2 256.3C1105.3 263.7 1163.7 278.3 1221.8 274.8C1280 271.3 1338 249.7 1396.2 253.2C1454.3 256.7 1512.7 285.3 1570.8 323.2C1629 361 1687 408 1745.2 393.7C1803.3 379.3 1861.7 303.7 1890.8 265.8L1920 228L1920 0L1890.8 0C1861.7 0 1803.3 0 1745.2 0C1687 0 1629 0 1570.8 0C1512.7 0 1454.3 0 1396.2 0C1338 0 1280 0 1221.8 0C1163.7 0 1105.3 0 1047.2 0C989 0 931 0 872.8 0C814.7 0 756.3 0 698.2 0C640 0 582 0 523.8 0C465.7 0 407.3 0 349.2 0C291 0 233 0 174.8 0C116.7 0 58.3 0 29.2 0L0 0Z" fill="#6198ff"></path><path d="M0 692L29.2 706.5C58.3 721 116.7 750 174.8 750C233 750 291 721 349.2 694C407.3 667 465.7 642 523.8 618.7C582 595.3 640 573.7 698.2 566.3C756.3 559 814.7 566 872.8 558.8C931 551.7 989 530.3 1047.2 512.3C1105.3 494.3 1163.7 479.7 1221.8 519.2C1280 558.7 1338 652.3 1396.2 675.8C1454.3 699.3 1512.7 652.7 1570.8 631.2C1629 609.7 1687 613.3 1745.2 618.7C1803.3 624 1861.7 631 1890.8 634.5L1920 638L1920 226L1890.8 263.8C1861.7 301.7 1803.3 377.3 1745.2 391.7C1687 406 1629 359 1570.8 321.2C1512.7 283.3 1454.3 254.7 1396.2 251.2C1338 247.7 1280 269.3 1221.8 272.8C1163.7 276.3 1105.3 261.7 1047.2 254.3C989 247 931 247 872.8 239.8C814.7 232.7 756.3 218.3 698.2 254.3C640 290.3 582 376.7 523.8 405.5C465.7 434.3 407.3 405.7 349.2 378.7C291 351.7 233 326.3 174.8 342.5C116.7 358.7 58.3 416.3 29.2 445.2L0 474Z" fill="#3c80ff"></path><path d="M0 887L29.2 894.2C58.3 901.3 116.7 915.7 174.8 912C233 908.3 291 886.7 349.2 865C407.3 843.3 465.7 821.7 523.8 794.7C582 767.7 640 735.3 698.2 748C756.3 760.7 814.7 818.3 872.8 825.5C931 832.7 989 789.3 1047.2 764.2C1105.3 739 1163.7 732 1221.8 748.2C1280 764.3 1338 803.7 1396.2 807.2C1454.3 810.7 1512.7 778.3 1570.8 771.2C1629 764 1687 782 1745.2 787.5C1803.3 793 1861.7 786 1890.8 782.5L1920 779L1920 636L1890.8 632.5C1861.7 629 1803.3 622 1745.2 616.7C1687 611.3 1629 607.7 1570.8 629.2C1512.7 650.7 1454.3 697.3 1396.2 673.8C1338 650.3 1280 556.7 1221.8 517.2C1163.7 477.7 1105.3 492.3 1047.2 510.3C989 528.3 931 549.7 872.8 556.8C814.7 564 756.3 557 698.2 564.3C640 571.7 582 593.3 523.8 616.7C465.7 640 407.3 665 349.2 692C291 719 233 748 174.8 748C116.7 748 58.3 719 29.2 704.5L0 690Z" fill="#0066ff"></path><path d="M0 973L29.2 978.3C58.3 983.7 116.7 994.3 174.8 992.5C233 990.7 291 976.3 349.2 963.8C407.3 951.3 465.7 940.7 523.8 931.7C582 922.7 640 915.3 698.2 918.8C756.3 922.3 814.7 936.7 872.8 942.2C931 947.7 989 944.3 1047.2 937.2C1105.3 930 1163.7 919 1221.8 929.7C1280 940.3 1338 972.7 1396.2 978.2C1454.3 983.7 1512.7 962.3 1570.8 955.2C1629 948 1687 955 1745.2 965.7C1803.3 976.3 1861.7 990.7 1890.8 997.8L1920 1005L1920 777L1890.8 780.5C1861.7 784 1803.3 791 1745.2 785.5C1687 780 1629 762 1570.8 769.2C1512.7 776.3 1454.3 808.7 1396.2 805.2C1338 801.7 1280 762.3 1221.8 746.2C1163.7 730 1105.3 737 1047.2 762.2C989 787.3 931 830.7 872.8 823.5C814.7 816.3 756.3 758.7 698.2 746C640 733.3 582 765.7 523.8 792.7C465.7 819.7 407.3 841.3 349.2 863C291 884.7 233 906.3 174.8 910C116.7 913.7 58.3 899.3 29.2 892.2L0 885Z" fill="#0059dd"></path><path d="M0 1081L29.2 1081C58.3 1081 116.7 1081 174.8 1081C233 1081 291 1081 349.2 1081C407.3 1081 465.7 1081 523.8 1081C582 1081 640 1081 698.2 1081C756.3 1081 814.7 1081 872.8 1081C931 1081 989 1081 1047.2 1081C1105.3 1081 1163.7 1081 1221.8 1081C1280 1081 1338 1081 1396.2 1081C1454.3 1081 1512.7 1081 1570.8 1081C1629 1081 1687 1081 1745.2 1081C1803.3 1081 1861.7 1081 1890.8 1081L1920 1081L1920 1003L1890.8 995.8C1861.7 988.7 1803.3 974.3 1745.2 963.7C1687 953 1629 946 1570.8 953.2C1512.7 960.3 1454.3 981.7 1396.2 976.2C1338 970.7 1280 938.3 1221.8 927.7C1163.7 917 1105.3 928 1047.2 935.2C989 942.3 931 945.7 872.8 940.2C814.7 934.7 756.3 920.3 698.2 916.8C640 913.3 582 920.7 523.8 929.7C465.7 938.7 407.3 949.3 349.2 961.8C291 974.3 233 988.7 174.8 990.5C116.7 992.3 58.3 981.7 29.2 976.3L0 971Z" fill="#004cbb"></path></svg>