<svg id="visual" viewBox="0 0 1920 1080" width="1920" height="1080" xmlns="http://www.w3.org/2000/svg" xmlns:xlink="http://www.w3.org/1999/xlink" version="1.1"><rect x="0" y="0" width="1920" height="1080" fill="#1c3694"></rect><path d="M0 784L274 761L549 774L823 713L1097 648L1371 710L1646 684L1920 686L1920 1081L1646 1081L1371 1081L1097 1081L823 1081L549 1081L274 1081L0 1081Z" fill="#0abcf5"></path><path d="M0 734L274 765L549 860L823 769L1097 765L1371 799L1646 753L1920 814L1920 1081L1646 1081L1371 1081L1097 1081L823 1081L549 1081L274 1081L0 1081Z" fill="#0098e1"></path><path d="M0 910L274 828L549 809L823 871L1097 834L1371 811L1646 874L1920 879L1920 1081L1646 1081L1371 1081L1097 1081L823 1081L549 1081L274 1081L0 1081Z" fill="#0073c7"></path><path d="M0 946L274 919L549 925L823 882L1097 888L1371 890L1646 877L1920 972L1920 1081L1646 1081L1371 1081L1097 1081L823 1081L549 1081L274 1081L0 1081Z" fill="#004ea9"></path><path d="M0 1007L274 945L549 1017L823 1030L1097 1003L1371 1031L1646 962L1920 995L1920 1081L1646 1081L1371 1081L1097 1081L823 1081L549 1081L274 1081L0 1081Z" fill="#002987"></path></svg>