<svg id="visual" viewBox="0 0 1920 1080" width="1920" height="1080" xmlns="http://www.w3.org/2000/svg" xmlns:xlink="http://www.w3.org/1999/xlink" version="1.1"><rect x="0" y="0" width="1920" height="1080" fill="#a6fffc"></rect><g fill="#49c5ff"><path d="M0 -218L48.9 -67.4L207.4 -67.4L79.2 25.7L128.2 176.4L0 83.3L-128.2 176.4L-79.2 25.7L-207.4 -67.4L-48.9 -67.4Z" transform="translate(1509 444)"></path><path d="M0 -96.3L21.6 -29.7L91.6 -29.7L35 11.4L56.6 77.9L0 36.8L-56.6 77.9L-35 11.4L-91.6 -29.7L-21.6 -29.7Z" transform="translate(52 613)"></path><path d="M0 -170.8L38.4 -52.8L162.5 -52.8L62.1 20.2L100.4 138.2L0 65.3L-100.4 138.2L-62.1 20.2L-162.5 -52.8L-38.4 -52.8Z" transform="translate(1712 15)"></path><path d="M0 -190.7L42.8 -58.9L181.3 -58.9L69.3 22.5L112.1 154.2L0 72.8L-112.1 154.2L-69.3 22.5L-181.3 -58.9L-42.8 -58.9Z" transform="translate(866 684)"></path></g></svg>